<svg xmlns="http://www.w3.org/2000/svg" version="1.1" xmlns:xlink="http://www.w3.org/1999/xlink" xmlns:svgjs="http://svgjs.dev/svgjs" width="100%" height="100%" viewBox="0 0 1000 600"><rect width="1000" height="600" x="0" y="0" fill="#430c76"/><g><circle r="166.66666666666666" cx="395.32062784830725" cy="417.54275157416737" fill="#b18cd4" transform="matrix(0.5466779217305631,0,0,0.5466779217305631,0,71.7386255657475)"/><path d="M403.1352874502759 355.9226011755998L407.4055486314837 423.5115033152464L413.1180834566756 489.6864116862811L401.72129368166406 492.54267909887704Q396.40467711168355 489.912650689259 390.9183812894695 485.3313108789566Q385.43208546725555 480.74997106865413 381.95366079647033 474.2173198576674L381.95366079647033 474.2173198576674L386.45016098065605 420.8814749056283L384.414009953855 374.44591954441506L348.78136698483627 482.5598830924774L341.23064026044904 485.020232249862Q328.19361771384774 477.46950552547463 321.067089120044 463.4426873408451L321.067089120044 463.4426873408451L305.40003816382466 379.53629711141775L299.91374234161066 423.5115033152464L298.07555044241525 489.6864116862811L286.2545625368202 492.54267909887704Q275.67788914760354 487.2543424042687 268.5513605537998 474.2173198576674L268.5513605537998 474.2173198576674L280.146109456417 420.8814749056283L285.85864428160886 368.9596237222011L268.74931968140544 369.5535011050181Q265.89305226880947 364.6893625409933 265.5819736397149 358.2698308314955Q265.2991748859925 351.8502991219977 266.7131686546044 346.759921554995L266.7131686546044 346.759921554995L296.23735854321984 346.759921554995Q299.29158508342147 348.1739153236069 303.6749657661182 351.2281418638085Q308.058346448815 354.28236840401007 312.63968625911735 357.76079307479523Q317.22102606941974 361.21093787020817 320.473211737227 364.26516441040974L320.473211737227 364.26516441040974L340.636762877632 448.76543202265407L375.84520771606714 349.41822983998526L381.75570166886473 345.34592778638313Q383.98981182327145 345.7418460415945 388.3731925059682 347.5800379407899Q392.7565731886649 349.41822983998526 397.02683436987274 351.65233999439204Q401.2970955510805 353.88645014879876 403.1352874502759 355.9226011755998L403.1352874502759 355.9226011755998ZM450.98483658010093 374.44591954441506L450.98483658010093 374.44591954441506Q453.2189467345077 381.5724481382188 459.7515979454945 387.680901218622Q466.255969281109 393.7893542990252 475.1075702726192 399.81296775331174Q483.9591712641294 405.808301332226 493.4329295138288 412.73687079842404Q502.9066877635283 419.66544026462213 511.36237049982714 428.6018808822491Q519.8180532361259 437.5666013752482 525.1063899307343 449.5855484084489L525.1063899307343 449.5855484084489Q523.8903552897282 457.5321933880475 519.1958959779367 465.5636779937629Q514.5014366661454 473.62344247485044 507.997065330531 480.12781381046494Q501.4926939949164 486.6321851460795 494.5641245287183 490.3085689444703L494.5641245287183 490.3085689444703Q487.2396368073089 491.5246035854765 477.65275905612054 492.03364134217674Q468.09416118030447 492.54267909887704 457.80028654481015 491.5246035854765Q447.5346917846881 490.5065280720759 437.94781403349975 487.45230153187435L437.94781403349975 487.45230153187435Q435.0915466209038 485.21819137746763 431.2454835702796 480.74997106865413Q427.37114064428306 476.25347088446847 424.51487323168715 472.379127958472L424.51487323168715 472.379127958472L427.7670588994944 441.04502604603334Q431.6414018254909 439.8007115296549 436.8448988939825 439.4047932744436Q442.0201160871019 439.0088750192323 446.092418140704 440.22490966023844L446.092418140704 440.22490966023844L447.9306100398994 466.69487300865234Q456.0752141471037 467.91090764965855 465.74693152440875 467.51498939444724Q475.4186489017138 467.09079126386365 484.8924071514133 465.1677597385515Q494.36616540111265 463.2164483378672 501.2664549919385 459.56834441484864L501.2664549919385 459.56834441484864Q497.1941529383364 451.4237403076443 489.6717060893213 444.6082903429352Q482.14925924030626 437.76456050285384 473.0714192458181 431.37330866872827Q464.0218591267023 424.9537769592305 455.0571386337032 418.22316662063804Q446.092418140704 411.5208361574179 438.88104992078354 403.9701094330306Q431.6414018254909 396.4476625840155 427.96501802710003 387.08702383580504L427.96501802710003 387.08702383580504Q429.4072916710841 379.14037885620644 432.970555967986 371.3068533780968Q436.5338202648879 363.4450480246149 441.3131192027959 357.0537961904893Q446.092418140704 350.6342644809915 450.78687745249533 347.38207881318425L450.78687745249533 347.38207881318425Q480.31106734111086 339.01123570300206 510.8533327431269 345.11968878340525L510.8533327431269 345.11968878340525Q512.8894837699279 346.3640032997837 514.925634796729 349.3051103384964Q516.9617858235301 352.246217377209 518.8848173488421 355.5266829203885Q520.8361287495264 358.77886858819573 522.0521633905328 360.61706048739114L522.0521633905328 360.61706048739114L518.9979368503311 388.30305847681126Q515.1235939243346 389.7170522454231 510.3442949864266 389.7170522454231Q505.56499604851854 389.7170522454231 500.87053673672716 388.6989767320226L500.87053673672716 388.6989767320226L499.03234483753175 366.7255135677944Q492.10377537133365 366.10335630960515 483.5632530089181 366.6123940663054Q475.0227306465025 367.1214318230057 466.4539284087147 368.9596237222011Q457.9134060462991 370.7978156213965 450.98483658010093 374.44591954441506Z " fill="#430c76" transform="matrix(0.5466779217305631,0,0,0.5466779217305631,0,71.7386255657475)"/><path d="M749.5801204509637 356.12777582357944L752.8156866242127 407.3397172412304L757.1440599155791 457.4802791313155L748.5087409233978 459.64446577699863Q744.48035389975 457.651699855726 740.3234013327942 454.1804301864125Q736.1664487658384 450.70916051709884 733.5308551280262 445.7593870997443L733.5308551280262 445.7593870997443L736.9378420256859 405.3469513199578L735.395055505991 370.162847634693L708.3962914113297 452.08052631238326L702.6751247341277 453.944726690348Q692.7970054899699 448.2235600131459 687.3972526710377 437.595475099692L687.3972526710377 437.595475099692L675.5263675056074 374.01981393393027L671.3694149386515 407.3397172412304L669.9766215528158 457.4802791313155L661.0198887023647 459.64446577699863Q653.0059698361716 455.6375063439021 647.6062170172395 445.7593870997443L647.6062170172395 445.7593870997443L656.39152914328 405.3469513199578L660.7199024346462 366.0058950677372L647.7562101510987 366.4558744693149Q645.5920235054155 362.77032889448816 645.356320009351 357.90626583933886Q645.1420441038379 353.04220278418956 646.2134236314037 349.18523648495227L646.2134236314037 349.18523648495227L668.5838281669801 349.18523648495227Q670.8980079465225 350.2566160125182 674.2192844819768 352.57079579206055Q677.5405610174312 354.884975571603 681.0118306867448 357.5205692094151Q684.4831003560585 360.134735256676 686.9472732694601 362.44891503621835L686.9472732694601 362.44891503621835L702.22514533255 426.47455560355775L728.9024955689415 351.1994299967762L733.3808619941669 348.1138569573863Q735.0736416477212 348.4138432251048 738.3949181831755 349.80663661094053Q741.7161947186298 351.1994299967762 744.951760891879 352.89220965033036Q748.187327065128 354.58498930388447 749.5801204509637 356.12777582357944L749.5801204509637 356.12777582357944ZM828.4122260892641 440.68104813908184L841.8473253649407 437.2740612414222Q843.2186911602251 439.1382616193869 844.6114845460609 442.52382092649526Q846.0042779318966 445.90938023360354 846.3042641996151 449.46636026512243L846.3042641996151 449.46636026512243L825.4766461837335 459.64446577699863Q821.7911006089067 458.5730862494327 817.5484376797457 456.1089133360311Q813.3057747505846 453.62331283207817 811.1415881049015 451.63054691080555L811.1415881049015 451.63054691080555L811.7629882308897 440.3596342808121Q804.049055632415 448.8449601391342 796.16370230953 453.944726690348Q788.2997765771961 459.0230656510104 782.4500443566861 459.64446577699863L782.4500443566861 459.64446577699863Q780.1358645771437 458.4230931155735 776.8145880416894 455.2518097139784Q773.493311506235 452.08052631238326 770.6434419629097 448.15927724149196Q767.7935724195844 444.2166005800494 766.8507584353264 440.68104813908184L766.8507584353264 440.68104813908184L770.1077521991267 398.08299812306086Q772.4219319786691 393.1546522962576 776.7288776794842 388.1405961072491Q781.0572509708504 383.1265399182406 785.3641966716655 380.0409668788508L785.3641966716655 380.0409668788508Q796.4851161677998 378.02677336702686 806.9632079473944 377.6410767371031Q817.4627273175404 377.2553801071794 830.1050057428183 381.28376713082724L830.1050057428183 381.28376713082724Q831.8192129869237 383.1265399182406 833.1905787822081 385.74070596550143Q834.5833721680438 388.3762996033136 835.5904689239558 390.75476215451Q836.5975656798678 393.1546522962576 836.747558813727 394.39745254823407L836.747558813727 394.39745254823407Q835.2047722940321 401.16857116245075 832.6548890184251 407.6611310995002Q830.1050057428183 414.1322634459983 826.5694533018507 420.0034232570596L826.5694533018507 420.0034232570596L828.4122260892641 440.68104813908184ZM788.1497834433369 440.8310412729411L788.1497834433369 440.8310412729411Q793.6995293961284 438.8168477611172 800.406365238691 432.19572228075975Q807.134628671805 425.5531692098511 812.6843746245964 416.44644322554075L812.6843746245964 416.44644322554075L813.3057747505846 393.1546522962576Q806.9632079473944 393.0046591623984 801.1134757268844 393.77605242224587Q795.2423159158232 394.5474456820933 789.9925562307502 396.09023220178824L789.9925562307502 396.09023220178824Q787.2283970496301 403.80416480026287 786.071307159859 411.753800894802Q784.9142172700878 419.68200939878983 784.9785000417417 426.4102728319038Q785.064210403947 433.11710867446646 785.9855967976537 437.124068107563Q786.9069831913604 441.13102754065955 788.1497834433369 440.8310412729411ZM901.8445789086322 377.57679396544916L901.8445789086322 377.57679396544916Q905.4015589401512 379.4195667528625 908.7228354756055 384.433622941871Q912.04411201106 389.4476791308795 913.4154778063443 394.8474319498118L913.4154778063443 394.8474319498118L912.04411201106 414.1322634459983Q909.4085183732477 415.99646382396304 905.4015589401512 416.8321398554645Q901.3945995070546 417.6892434775172 897.987612609395 417.8392366113764L897.987612609395 417.8392366113764L894.3020670345683 414.2822565798576Q895.0734602944157 408.58251749320686 895.2877361999289 404.1898614301866Q895.5234396959934 399.7972053671663 894.9020395700052 396.3902184695067L894.9020395700052 396.3902184695067Q890.1236868770611 399.9471985010256 886.0310170817593 406.6540343435882Q881.9597748770088 413.36087018615086 878.5527879793492 421.54620977675455L878.5527879793492 421.54620977675455L879.0241949714782 457.180292863597Q875.6172080738186 458.1016792573037 871.1602692391443 458.1016792573037Q866.6819028139188 458.1016792573037 863.1249227824 457.180292863597L863.1249227824 457.180292863597Q858.3465700894559 452.08052631238326 855.2609970500662 445.6093939658851L855.2609970500662 445.6093939658851Q856.332376577632 440.50962741467134 858.3465700894559 434.72417796581533Q860.3607636012798 428.9387285169594 862.9749296485408 423.23898943030866L862.9749296485408 423.23898943030866L862.9749296485408 417.6892434775172L861.1321568611273 396.3902184695067L847.6970575854507 399.7972053671663Q846.6256780578848 397.9330049892016 845.0828915381899 394.6117284537473Q843.540105018495 391.31187950884424 843.2186911602251 387.7548994773254L843.2186911602251 387.7548994773254L864.0463091761067 377.57679396544916Q865.5890956958016 377.7267870993084 868.4603928296782 379.2695736190033Q871.3102623730035 380.81236013869824 874.160131916329 382.59085015445766Q877.0100014596543 384.3693401702171 878.40279484549 385.59071283164224L878.40279484549 385.59071283164224L877.7813947195018 397.7830118553424Q884.1025339321407 388.99769972930187 890.5950938691901 383.27653305209986Q897.0662262156884 377.57679396544916 901.8445789086322 377.57679396544916ZM945.2140221845008 368.7700542488573L945.2140221845008 368.7700542488573Q937.1786757277564 364.46310854804227 930.7075433812582 357.3705760755559L930.7075433812582 357.3705760755559Q930.8575365151174 354.884975571603 932.7860196647362 351.73511976055914Q934.7145028143548 348.563836358964 937.4143792238209 345.8639599494979Q940.114255633287 343.16408354003175 942.5784285466887 342.54268341404355L942.5784285466887 342.54268341404355Q945.0426014600903 342.54268341404355 948.1281744994801 344.4711665636622Q951.2137475388699 346.3996497132809 953.8493411766821 349.099526122747Q956.463507223943 351.7994025322131 956.934914216072 354.285003036166L956.934914216072 354.285003036166Q956.7849210822127 356.8991690834269 954.7707275703888 360.07045248502203Q952.7565340585649 363.2203082960658 950.1423680113039 365.6201984378135Q947.5282019640431 367.9986609890098 945.2140221845008 368.7700542488573ZM948.4495883577499 440.68104813908184L962.1846739011451 436.5026679815748Q963.2560534287109 438.36686835953947 964.7988399484059 442.1381242965715Q966.3416264681007 445.90938023360354 966.6416127358191 449.46636026512243L966.6416127358191 449.46636026512243L945.8139947199377 459.64446577699863Q934.0931026883666 454.24471295806643 929.7861569875515 445.7593870997443L929.7861569875515 445.7593870997443L933.0217231608005 397.3116048632134L921.7508105308071 400.71859176087304Q920.6794310032412 398.8543913829083 919.1366444835462 395.0831354458763Q917.5938579638514 391.31187950884424 917.2724441055816 387.7548994773254L917.2724441055816 387.7548994773254L938.100062121463 377.57679396544916Q939.642848641158 377.7267870993084 942.5784285466887 379.2695736190033Q945.5140084522193 380.81236013869824 948.3638779955445 382.6551329261116Q951.2137475388699 384.5193333040763 952.7565340585649 385.74070596550143L952.7565340585649 385.74070596550143L948.4495883577499 419.68200939878983L948.4495883577499 440.68104813908184ZM1032.8314399488418 440.68104813908184L1046.2665392245185 437.2740612414222Q1047.637905019803 439.1382616193869 1049.0306984056385 442.52382092649526Q1050.4234917914741 445.90938023360354 1050.7234780591925 449.46636026512243L1050.7234780591925 449.46636026512243L1029.8958600433111 459.64446577699863Q1026.2103144684843 458.5730862494327 1021.9676515393232 456.1089133360311Q1017.7249886101622 453.62331283207817 1015.5608019644791 451.63054691080555L1015.5608019644791 451.63054691080555L1016.1822020904674 440.3596342808121Q1008.4682694919927 448.8449601391342 1000.5829161691074 453.944726690348Q992.7189904367738 459.0230656510104 986.8692582162637 459.64446577699863L986.8692582162637 459.64446577699863Q984.5550784367214 458.4230931155735 981.233801901267 455.2518097139784Q977.9125253658127 452.08052631238326 975.0626558224874 448.15927724149196Q972.212786279162 444.2166005800494 971.2699722949039 440.68104813908184L971.2699722949039 440.68104813908184L974.5269660587044 398.08299812306086Q976.8411458382468 393.1546522962576 981.1480915390617 388.1405961072491Q985.4764648304281 383.1265399182406 989.783410531243 380.0409668788508L989.783410531243 380.0409668788508Q1000.9043300273773 378.02677336702686 1011.382421806972 377.6410767371031Q1021.881941177118 377.2553801071794 1034.524219602396 381.28376713082724L1034.524219602396 381.28376713082724Q1036.2384268465014 383.1265399182406 1037.6097926417856 385.74070596550143Q1039.0025860276214 388.3762996033136 1040.0096827835334 390.75476215451Q1041.0167795394455 393.1546522962576 1041.1667726733046 394.39745254823407L1041.1667726733046 394.39745254823407Q1039.6239861536096 401.16857116245075 1037.0741028780028 407.6611310995002Q1034.524219602396 414.1322634459983 1030.9886671614283 420.0034232570596L1030.9886671614283 420.0034232570596L1032.8314399488418 440.68104813908184ZM992.5689973029146 440.8310412729411L992.5689973029146 440.8310412729411Q998.1187432557059 438.8168477611172 1004.8255790982687 432.19572228075975Q1011.5538425313825 425.5531692098511 1017.103588484174 416.44644322554075L1017.103588484174 416.44644322554075L1017.7249886101622 393.1546522962576Q1011.382421806972 393.0046591623984 1005.5326895864621 393.77605242224587Q999.6615297754008 394.5474456820933 994.4117700903279 396.09023220178824L994.4117700903279 396.09023220178824Q991.6476109092077 403.80416480026287 990.4905210194365 411.753800894802Q989.3334311296653 419.68200939878983 989.3977139013193 426.4102728319038Q989.4834242635246 433.11710867446646 990.4048106572313 437.124068107563Q991.3261970509379 441.13102754065955 992.5689973029146 440.8310412729411ZM1103.649626720949 370.162847634693L1103.649626720949 370.162847634693Q1105.3424063745033 375.56260045362524 1110.292179791858 380.19096001271Q1115.220525618661 384.8193195717948 1121.9273614612237 389.38339635922557Q1128.6341973037863 393.92604555610507 1135.812440138478 399.1758052411781Q1142.9906829731697 404.4255649262511 1149.397532548014 411.19668354046775Q1155.804382122858 417.98922974523566 1159.8113415559546 427.095955729546L1159.8113415559546 427.095955729546Q1158.889955162248 433.11710867446646 1155.332975130729 439.2025443910409Q1151.7759950992101 445.30940769816664 1146.8476492724071 450.2377535249699Q1141.9193034456039 455.1660993517731 1136.6695437605308 457.9516861234445L1136.6695437605308 457.9516861234445Q1131.1197978077394 458.8730725171512 1123.8558446108423 459.25876914707493Q1116.6133190044966 459.64446577699863 1108.813676043817 458.8730725171512Q1101.0354606736882 458.1016792573037 1093.7715074767914 455.78749947776134L1093.7715074767914 455.78749947776134Q1091.6073208311082 454.0947198242072 1088.693168516129 450.70916051709884Q1085.7575886105983 447.30217361943926 1083.593401964915 444.3665937139086L1083.593401964915 444.3665937139086L1086.0575748783167 420.62482338304784Q1088.9931547838473 419.68200939878983 1092.9358314452898 419.3820231310714Q1096.8570805161812 419.0820368633529 1099.942653555571 420.0034232570596L1099.942653555571 420.0034232570596L1101.3354469414066 440.05964801309364Q1107.5065930201863 440.98103440680035 1114.8348289887372 440.68104813908184Q1122.163064957288 440.3596342808121 1129.34130779198 438.9025581233224Q1136.5195506266714 437.42405437528146 1141.747882721193 434.6598951941614L1141.747882721193 434.6598951941614Q1138.6623096818034 428.48874911538167 1132.9625705951526 423.32469979251397Q1127.262831508502 418.1392228790949 1120.3845749415286 413.2965874144969Q1113.527745965107 408.43252435934767 1106.735199760339 403.33275780813386Q1099.942653555571 398.2544188474714 1094.4786179649848 392.5332521702694Q1088.9931547838473 386.8335130836187 1086.207568012176 379.74098061113233L1086.207568012176 379.74098061113233Q1087.300375130293 373.7198276662118 1090.0002515397593 367.7843850834966Q1092.7001279492254 361.82751491023015 1096.3213907523982 356.98487944563215Q1099.942653555571 352.12081639048284 1103.4996335870899 349.6566434770813L1103.4996335870899 349.6566434770813Q1125.8700381226663 343.314076673891 1149.0118359180901 347.9424362329758L1149.0118359180901 347.9424362329758Q1150.5546224377852 348.8852502172338 1152.09740895748 351.11371963457094Q1153.640195477175 353.34218905190806 1155.0972716346646 355.827789555861Q1156.5757753827056 358.2919624692626 1157.4971617764122 359.6847558550983L1157.4971617764122 359.6847558550983L1155.1829819968698 380.662367004839Q1152.2474020913392 381.73374653240495 1148.6261392881665 381.73374653240495Q1145.0048764849935 381.73374653240495 1141.4478964534746 380.96235327255744L1141.4478964534746 380.96235327255744L1140.055103067639 364.3131154141831Q1134.805343382566 363.84170842205407 1128.334211036068 364.22740505197777Q1121.8630786895696 364.61310168190147 1115.3705187525202 366.0058950677372Q1108.8993864060221 367.3986884535729 1103.649626720949 370.162847634693ZM1187.2600850521935 442.52382092649526L1227.0725482965431 432.96711554060727Q1228.1439278241091 434.33848133589163 1229.4724384382907 438.36686835953947Q1230.7795214619214 442.373827792636 1230.629528328062 445.4594008320259L1230.629528328062 445.4594008320259Q1223.9869752571533 448.2235600131459 1216.7444496508078 450.92343642261204Q1209.4804964539107 453.62331283207817 1203.245067603477 455.9374926116206Q1196.988211162492 458.25167239116297 1192.9812517293954 459.64446577699863L1192.9812517293954 459.64446577699863Q1188.2028990364515 458.4230931155735 1182.9531393513785 455.78749947776134Q1177.7033796663054 453.17333343050046 1173.3750063749392 449.5520706273277Q1169.0680606741241 445.90938023360354 1167.2038602961595 442.22383465877675L1167.2038602961595 442.22383465877675L1169.3680469418427 394.99742508367103Q1171.5322335875258 391.1404587844337 1175.4749102489684 387.21920971354245Q1179.3961593198596 383.27653305209986 1183.2531256190969 380.0409668788508L1183.2531256190969 380.0409668788508Q1192.2098584695482 378.02677336702686 1200.759467099524 377.57679396544916Q1209.3305033200513 377.10538697332015 1217.1944290523852 378.3481872252966L1217.1944290523852 378.3481872252966Q1218.587222438221 379.11958048514407 1220.9871125799687 381.66946376075094Q1223.3655751311649 384.1979194458065 1225.6797549107073 386.8335130836187Q1227.9939346902497 389.4476791308795 1228.7653279500973 390.69047938285604L1228.7653279500973 390.69047938285604L1228.1439278241091 413.68228404442067Q1224.1369683910125 416.5964363594 1217.3444221862446 419.8534301232004Q1210.573303572028 423.08899629644947 1202.3879639814245 426.088858973634Q1194.2026243908206 429.1101492413699 1186.0387123907685 431.42432902091235L1186.0387123907685 431.42432902091235Q1186.1887055246275 434.33848133589163 1186.4886917923461 437.124068107563Q1186.8101056506157 439.9096548792344 1187.2600850521935 442.52382092649526L1187.2600850521935 442.52382092649526ZM1213.337462753148 404.2541442018406L1211.6446830995937 394.2260318238236Q1206.0949371468023 393.4546385639761 1200.8451774617292 393.77605242224587Q1195.5954177766564 394.0760386899643 1189.8956786900058 395.61882520965924L1189.8956786900058 395.61882520965924Q1188.3528921703107 400.39717790260323 1187.4315057766041 405.96835144594604Q1186.4886917923461 411.5180973987375 1186.0387123907685 417.2178364853882L1186.0387123907685 417.2178364853882Q1192.6598378711258 415.0536498397051 1199.9880738396766 411.58238017039145Q1207.3163098082275 408.11111050107786 1213.337462753148 404.2541442018406L1213.337462753148 404.2541442018406ZM1309.4616339663623 394.39745254823407L1309.4616339663623 394.39745254823407Q1306.8260403285503 405.6469375876763 1301.7477013678877 415.6750499656933L1301.7477013678877 415.6750499656933L1305.2832538088553 466.4370119817666Q1303.7404672891603 469.8225712888749 1300.7406046119759 474.3009377141005Q1297.7407419347915 478.77930413932603 1294.098051541067 482.93625670628177Q1290.4767887378944 487.11463686378886 1286.9412362969267 489.57880977719043L1286.9412362969267 489.57880977719043Q1280.298683226018 491.42158256460385 1272.4347574936842 492.12869305279736Q1264.5708317613503 492.81437595043957 1256.6854784384652 492.36439654886186Q1248.8215527061313 491.89298955673286 1242.2004272257739 490.6501893047564L1242.2004272257739 490.6501893047564Q1242.0290065013635 488.18601639135477 1242.350420359633 484.564753588182Q1242.6504066273515 480.94349078500915 1243.357517115545 477.3865107534903Q1244.0432000131873 473.8509583125228 1245.1145795407533 471.6867716668396L1245.1145795407533 471.6867716668396Q1250.0643529581077 473.52954445425297 1256.4712025329518 474.536641210165Q1262.8566245172449 475.5437379660769 1269.649170722013 475.5437379660769Q1276.4417169267808 475.5437379660769 1282.1414560134313 474.7723447062295L1282.1414560134313 474.7723447062295Q1285.6984360449505 466.5870051156258 1286.769815572516 457.71598262738Q1287.8626226906335 448.8449601391342 1288.0126158244927 436.35267484771555L1288.0126158244927 436.35267484771555Q1279.5272899661707 446.5307803595918 1270.5705571157196 452.78763680057676Q1261.6352518558197 459.0230656510104 1255.1426919187702 459.64446577699863L1255.1426919187702 459.64446577699863Q1252.8285121392278 458.4230931155735 1249.528663194325 455.2518097139784Q1246.2073866588705 452.08052631238326 1243.357517115545 448.15927724149196Q1240.4862199816685 444.2166005800494 1239.5648335879619 440.68104813908184L1239.5648335879619 440.68104813908184L1242.8003997612109 398.08299812306086Q1245.1145795407533 393.1546522962576 1249.4429528321195 388.1405961072491Q1253.7713261234858 383.1265399182406 1258.0782718243008 380.0409668788508L1258.0782718243008 380.0409668788508Q1269.1991913204351 378.02677336702686 1279.6772831000299 377.6410767371031Q1290.1768024701757 377.2553801071794 1302.8190808954537 381.28376713082724L1302.8190808954537 381.28376713082724Q1304.511860549008 383.1265399182406 1305.9046539348435 385.74070596550143Q1307.2974473206793 388.3762996033136 1308.3045440765911 390.75476215451Q1309.3116408325031 393.1546522962576 1309.4616339663623 394.39745254823407ZM1260.8638585959723 440.8310412729411L1260.8638585959723 440.8310412729411Q1266.713590816482 438.6668546272579 1273.82755087952 431.42432902091235Q1280.9200833520063 424.1603758240154 1286.619822438657 414.2822565798576L1286.619822438657 414.2822565798576L1286.4698293047977 393.1546522962576Q1280.1486900921589 393.0046591623984 1274.1275371472384 393.77605242224587Q1268.106384202318 394.5474456820933 1262.7066313833857 396.09023220178824L1262.7066313833857 396.09023220178824Q1259.9424722022654 403.80416480026287 1258.7853823124942 411.753800894802Q1257.6282924227232 419.68200939878983 1257.6925751943772 426.4102728319038Q1257.7782855565824 433.11710867446646 1258.699671950289 437.124068107563Q1259.6210583439956 441.13102754065955 1260.8638585959723 440.8310412729411ZM1356.1952089587878 377.57679396544916L1356.1952089587878 377.57679396544916Q1362.3663550375675 378.19819409143736 1367.6161147226405 381.88373966626415Q1372.8658744077134 385.59071283164224 1376.87283384081 390.75476215451Q1380.8797932739067 395.94023906792904 1383.0439799195897 401.4899850207205L1383.0439799195897 401.4899850207205L1381.8226072581647 438.5168614933987Q1380.5798070061883 440.98103440680035 1378.0299237305812 444.4523040761139Q1375.4800404549744 447.92357374542746 1372.4801777777898 451.15913991867654Q1369.4803151006054 454.3947060919256 1366.5447351950745 456.5588927376088L1366.5447351950745 456.5588927376088Q1361.9163756359899 457.9516861234445 1357.7379954784828 458.8087897454972Q1353.5810429115268 459.64446577699863 1348.4169935886594 459.64446577699863Q1343.2529442657915 459.64446577699863 1335.539011667317 459.0230656510104L1335.539011667317 459.0230656510104Q1332.453438627927 457.80169298958526 1328.27505847042 454.63040958799013Q1324.118105903464 451.48055377694635 1320.7111190058044 447.53787711550376Q1317.3255596986962 443.59520045406117 1316.4041733049894 440.05964801309364L1316.4041733049894 440.05964801309364L1318.3969392262622 398.08299812306086Q1319.6397394782384 394.99742508367103 1321.7182157617167 391.226169146639Q1323.7966920451945 387.45491320960696 1326.3465753208013 383.89793317808807Q1328.8964585964081 380.34095314656923 1331.36063150981 378.4981803591558L1331.36063150981 378.4981803591558Q1335.3675909429062 379.5695598867218 1338.3031708484368 381.8194568946102Q1341.2387507539675 384.0479263119473 1342.7815372736627 386.2121129576305L1342.7815372736627 386.2121129576305Q1338.6245847067069 391.1404587844337 1336.6103911948828 398.8543913829083Q1334.596197683059 406.56832398138295 1334.1462182814812 414.9036567058458Q1333.6748112893522 423.23898943030866 1334.5319149114048 430.41723226500034Q1335.3675909429062 437.595475099692 1336.9103774626014 441.60243453278855L1336.9103774626014 441.60243453278855Q1343.4029373996507 442.8238071942137 1349.9597801083542 442.43811056428996Q1356.5166228170574 442.05241393436626 1362.2163619037083 440.50962741467134L1362.2163619037083 440.50962741467134Q1365.4519280769573 431.10291516264255 1365.7733419352273 421.31050628069005Q1366.0733282029455 411.5180973987375 1364.3805485493915 404.2541442018406L1364.3805485493915 404.2541442018406Q1359.1307888643184 400.24718476874403 1354.8881259351574 397.86872221754766Q1350.6454630059966 395.46883207580004 1345.095717053205 393.30464543011686L1345.095717053205 393.30464543011686Q1347.8813038248763 388.2263064694544 1350.2597663760725 384.905029934Q1352.6596565178204 381.5837533985457 1356.1952089587878 377.57679396544916ZM1457.7191329909344 379.74098061113233L1457.7191329909344 379.74098061113233Q1459.4119126444887 381.43376026468644 1461.1046922980427 384.13363667415257Q1462.8188995421483 386.8335130836187 1464.1259825657787 389.211975634815Q1465.4330655894091 391.6118657765627 1465.5830587232683 392.85466602853916L1465.5830587232683 392.85466602853916Q1462.4974856838785 412.58947692630346 1455.4049532113922 426.94596259568675Q1448.3124207389058 441.28102067451874 1439.4413982506599 449.5520706273277Q1430.570375762414 457.80169298958526 1422.085049904092 459.64446577699863L1422.085049904092 459.64446577699863Q1419.6208769906902 458.25167239116297 1415.9781865969662 455.1660993517731Q1412.3569237937934 452.08052631238326 1409.2713507544036 448.15927724149196Q1406.1857777150135 444.2166005800494 1404.7929843291781 440.68104813908184L1404.7929843291781 440.68104813908184L1399.5646522346565 397.48302558762396L1388.2937396046627 400.39717790260323Q1386.900946218827 398.55440511518987 1385.5081528329915 394.7831491781578Q1384.136787037707 390.9904656505745 1383.8153731794373 387.45491320960696L1383.8153731794373 387.45491320960696L1406.5071915732835 377.57679396544916Q1410.0427440142512 378.9695873512848 1414.4354000772714 383.04082955603536Q1418.849483730843 387.13349935133715 1421.3136566442445 391.46187264270344L1421.3136566442445 391.46187264270344Q1418.849483730843 399.9471985010256 1418.6780630064322 408.8825037609253Q1418.528069872573 417.8392366113764 1419.9208632584086 425.2531829421326Q1421.3136566442445 432.64570168233746 1423.092146660004 436.9740749737038Q1424.8492090852121 441.28102067451874 1426.2420024710477 440.8310412729411L1426.2420024710477 440.8310412729411Q1430.7203688962732 439.1382616193869 1435.1130249592934 432.96711554060727Q1439.5056810223139 426.7959694618275 1443.0626610538327 418.3106436035054L1443.0626610538327 418.3106436035054L1437.1915012427717 382.97654678438136Q1440.598488140431 381.43376026468644 1446.2982272270817 380.2766703749153Q1452.0193939042838 379.11958048514407 1457.7191329909344 379.74098061113233ZM1495.045995731331 368.7700542488573L1495.045995731331 368.7700542488573Q1487.0320768651382 364.46310854804227 1480.56094451864 357.3705760755559L1480.56094451864 357.3705760755559Q1480.710937652499 354.884975571603 1482.6394208021177 351.73511976055914Q1484.5679039517363 348.563836358964 1487.2677803612025 345.8639599494979Q1489.9676567706688 343.16408354003175 1492.4318296840702 342.54268341404355L1492.4318296840702 342.54268341404355Q1494.896002597472 342.54268341404355 1497.9815756368619 344.4711665636622Q1501.0671486762517 346.3996497132809 1503.7027423140637 349.099526122747Q1506.3169083613247 351.7994025322131 1506.7883153534535 354.285003036166L1506.7883153534535 354.285003036166Q1506.6168946290431 356.8991690834269 1504.6241287077705 360.07045248502203Q1502.6099351959465 363.2203082960658 1499.9957691486857 365.6201984378135Q1497.3601755108734 367.9986609890098 1495.045995731331 368.7700542488573ZM1498.3029894951314 440.68104813908184L1512.0166474479754 436.5026679815748Q1513.1094545660926 438.36686835953947 1514.6522410857874 442.1381242965715Q1516.1950276054824 445.90938023360354 1516.4950138732008 449.46636026512243L1516.4950138732008 449.46636026512243L1495.6673958573192 459.64446577699863Q1483.946503825748 454.24471295806643 1479.618130534382 445.7593870997443L1479.618130534382 445.7593870997443L1482.8751242981823 397.3116048632134L1471.6042116681888 400.71859176087304Q1470.5328321406228 398.8543913829083 1468.990045620928 395.0831354458763Q1467.4472591012332 391.31187950884424 1467.1258452429634 387.7548994773254L1467.1258452429634 387.7548994773254L1487.9534632588447 377.57679396544916Q1489.4962497785395 377.7267870993084 1492.4318296840702 379.2695736190033Q1495.3674095896008 380.81236013869824 1498.2172791329263 382.6551329261116Q1501.0671486762517 384.5193333040763 1502.6099351959465 385.74070596550143L1502.6099351959465 385.74070596550143L1498.3029894951314 419.68200939878983L1498.3029894951314 440.68104813908184ZM1582.6848410862235 440.68104813908184L1596.0985127713489 437.2740612414222Q1597.4913061571845 439.1382616193869 1598.88409954302 442.52382092649526Q1600.276892928856 445.90938023360354 1600.5768791965743 449.46636026512243L1600.5768791965743 449.46636026512243L1579.7492611806929 459.64446577699863Q1576.0422880153146 458.5730862494327 1571.7996250861538 456.1089133360311Q1567.5569621569925 453.62331283207817 1565.4142031018607 451.63054691080555L1565.4142031018607 451.63054691080555L1566.0141756372977 440.3596342808121Q1558.300243038823 448.8449601391342 1550.4363173064892 453.944726690348Q1542.5723915741553 459.0230656510104 1536.7012317630943 459.64446577699863L1536.7012317630943 459.64446577699863Q1534.3870519835518 458.4230931155735 1531.0872030386486 455.2518097139784Q1527.7659265031944 452.08052631238326 1524.916056959869 448.15927724149196Q1522.0447598259923 444.2166005800494 1521.1233734322857 440.68104813908184L1521.1233734322857 440.68104813908184L1524.3589396055347 398.08299812306086Q1526.6731193850771 393.1546522962576 1531.0014926764434 388.1405961072491Q1535.3298659678098 383.1265399182406 1539.636811668625 380.0409668788508L1539.636811668625 380.0409668788508Q1550.757731164759 378.02677336702686 1561.2358229443537 377.6410767371031Q1571.7353423144996 377.2553801071794 1584.3776207397775 381.28376713082724L1584.3776207397775 381.28376713082724Q1586.0704003933315 383.1265399182406 1587.4631937791673 385.74070596550143Q1588.8559871650032 388.3762996033136 1589.863083920915 390.75476215451Q1590.870180676827 393.1546522962576 1591.0201738106862 394.39745254823407L1591.0201738106862 394.39745254823407Q1589.4773872909914 401.16857116245075 1586.9275040153846 407.6611310995002Q1584.3776207397775 414.1322634459983 1580.84206829881 420.0034232570596L1580.84206829881 420.0034232570596L1582.6848410862235 440.68104813908184ZM1542.422398440296 440.8310412729411L1542.422398440296 440.8310412729411Q1547.9721443930875 438.8168477611172 1554.6789802356502 432.19572228075975Q1561.3858160782129 425.5531692098511 1566.9569896215557 416.44644322554075L1566.9569896215557 416.44644322554075L1567.5569621569925 393.1546522962576Q1561.2358229443537 393.0046591623984 1555.3860907238436 393.77605242224587Q1549.5149309127823 394.5474456820933 1544.2651712277093 396.09023220178824L1544.2651712277093 396.09023220178824Q1541.5010120465895 403.80416480026287 1540.3439221568183 411.753800894802Q1539.186832267047 419.68200939878983 1539.2511150387008 426.4102728319038Q1539.3368254009063 433.11710867446646 1540.2582117946129 437.124068107563Q1541.1795981883197 441.13102754065955 1542.422398440296 440.8310412729411Z " fill="#b18cd4" transform="matrix(0.5466779217305631,0,0,0.5466779217305631,0,71.7386255657475)"/></g></svg>